<?xml version="1.0" encoding="UTF-8" standalone="no"?>
<svg
   xmlns:dc="http://purl.org/dc/elements/1.1/"
   xmlns:cc="http://creativecommons.org/ns#"
   xmlns:rdf="http://www.w3.org/1999/02/22-rdf-syntax-ns#"
   xmlns:svg="http://www.w3.org/2000/svg"
   xmlns="http://www.w3.org/2000/svg"
   version="1.1"
   id="svg4203"
   viewBox="0 0 197 197"
   height="197"
   width="197">
  <defs
     id="defs4205" />
  <metadata
     id="metadata4208">
    <rdf:RDF>
      <cc:Work
         rdf:about="">
        <dc:format>image/svg+xml</dc:format>
        <dc:type
           rdf:resource="http://purl.org/dc/dcmitype/StillImage" />
        <dc:title></dc:title>
      </cc:Work>
    </rdf:RDF>
  </metadata>
  <g
     transform="translate(0,-855.36216)"
     id="layer1">
    <path
       id="path4177"
       style="fill:#3e733c;fill-opacity:1;fill-rule:nonzero;stroke:none"
       d="m 197.00125,953.86595 c 0,54.39005 -44.1425,98.49625 -98.45,98.49625 C 44.0825,1052.3622 0,1008.256 0,953.86595 0,899.4472 44.0825,855.2647 98.55125,855.2647 c 54.3075,0 98.45,44.1825 98.45,98.60125" />
    <path
       id="path4179"
       style="fill:#ffffff;fill-opacity:1;fill-rule:nonzero;stroke:none"
       d="m 20.225,910.2797 c 0.0563,-0.1175 0.12125,-0.29375 0.2675,-0.62 0.155,-0.32625 0.385,-0.7325 0.6625,-1.1525 0.26625,-0.41625 0.83,-1.07 1.58,-1.26 0.75,-0.19375 1.52125,0.0812 1.9225,0.3325 0.4,0.245 0.9225,0.52125 1.38,1.315 0.43875,0.735 0.14125,1.68875 -0.19625,2.32875 l 0.325,0.55 c 1.085,-0.18625 6.3925,-1.02625 7.32875,-1.1825 0.83875,-1.305 1.85,-2.6825 2.02125,-2.92 -0.13125,-0.30125 -0.57,-0.5425 -0.8725,-0.61125 -0.16625,0.2375 -0.3375,0.44 -0.4075,0.51125 -0.62375,0.70125 -1.05125,0.80625 -2.47875,1.1325 -1.42125,0.3225 -3.0475,0.4175 -4.3625,0.5225 0.32875,-1.48125 0.18125,-2.91 -1.37625,-3.9325 -2.40375,-1.575 -4.125,0.0337 -5.0325,1.3275 -0.3225,0.4575 -0.68125,1.025 -0.97375,1.5375 -0.29375,0.50875 -1.255,2.08375 -2.83625,5.28375 0.0962,0.22625 0.6675,0.60125 0.9625,0.485 0.11375,-0.1875 0.17,-0.26875 0.3,-0.4775 0.6075,-0.9675 0.93,-0.8825 2.86125,0.125 0.84875,0.44875 3.385,1.7675 4.6575,2.4375 1.90625,0.99 2.12875,1.33 1.78625,2.3725 -0.0488,0.13375 -0.125,0.32125 -0.2175,0.52875 0.14,0.2425 0.6625,0.49125 0.9725,0.4625 0.7825,-1.65 1.83375,-3.60625 2.82,-5.27875 -0.10625,-0.3 -0.63625,-0.63875 -0.8975,-0.575 -0.135,0.20125 -0.3,0.42125 -0.42375,0.58 -0.71625,0.88875 -1.23,0.8275 -2.9175,-0.1125 -0.91375,-0.5025 -4.625,-2.545 -6.855,-3.71 m 8.615,78.0575 c -0.39,-0.785 -1.6375,-3.455 -2.09875,-4.5775 -0.395,-0.15375 -0.81125,0.05 -0.995,0.3725 0.0575,0.17125 0.12,0.28375 0.215,0.61 0.27875,0.89125 -0.0637,1.32375 -1.885,2.255 -1.215,0.63 -5.02625,2.405 -5.85625,2.7825 0.3175,-0.65125 5.635,-11.05625 6.53625,-12.8325 -0.11375,-0.32125 -0.53625,-0.71875 -0.76625,-0.79375 -0.22625,0.1925 -0.59875,0.3875 -0.95375,0.4925 -2.0175,0.66875 -6.4625,1.96625 -7.62875,2.32625 -2.07375,0.64 -2.56125,0.44 -2.94125,-0.45625 -0.0588,-0.15125 -0.14375,-0.39125 -0.1975,-0.5575 -0.265,-0.1975 -0.8975,-0.0387 -1.01,0.29625 0.35,1.2825 1.05375,3.46125 1.63625,5.16625 0.3225,0.1625 0.79125,-0.0137 1.00125,-0.32125 -0.0463,-0.19625 -0.14375,-0.55625 -0.18375,-0.72 -0.31875,-1.30375 0.35875,-1.52125 2.11375,-2.105 0.90875,-0.30625 4.3075,-1.305 5.24625,-1.5975 -0.49375,1.04125 -4.88375,9.635 -5.02125,9.90125 -0.35875,0.67875 -0.5025,0.88875 -0.75875,1.11375 0.1475,0.17875 0.2375,0.34375 0.31,0.515 0.415,0.95625 1.27125,2.82 1.6225,3.45625 0.34625,0.0875 0.78625,-0.19 0.94125,-0.48125 -0.10125,-0.2525 -0.1625,-0.3975 -0.22875,-0.5825 -0.39875,-1.16125 0.60875,-1.4925 1.90375,-2.1 1.30375,-0.60375 3.1875,-1.48625 4.78375,-2.245 1.78625,-0.84375 2.4875,-0.785 2.9675,0.006 0.0975,0.16 0.2625,0.465 0.31875,0.57875 0.385,0.14875 0.84,-0.0775 0.92875,-0.5025 m 133.18,19.02505 -2.7675,3.0662 5.12875,2.0838 c 0,0 0.08,0.044 0.1375,-0.022 0.0487,-0.064 0.0162,-0.145 0.0162,-0.145 l -2.515,-4.9825 z m -3.8675,-3.3525 c 0.35875,-0.4113 1.915,-2.325 2.9025,-3.5863 0.305,-0.1025 0.81625,0.2763 0.86375,0.6325 -0.0475,0.089 -0.195,0.2638 -0.3175,0.5188 -0.26125,0.5587 -0.39125,0.89 0.5375,2.7612 0.88875,1.78 4.22375,8.615 4.52375,9.2288 -0.085,0.3112 -0.79125,1.7737 -0.83125,1.8837 -0.0475,0.099 -0.09,0.1888 -0.30125,0.105 -0.21125,-0.085 -9.0725,-3.7275 -9.89625,-4.045 -0.55375,-0.2225 -1.97625,-0.965 -2.78,-0.2775 -0.2025,0.1738 -0.26875,0.245 -0.53,0.4538 -0.22625,-0.03 -0.75,-0.3875 -0.72,-0.8288 1.87,-1.7887 3.37,-3.3212 3.94875,-3.9437 0.30125,-0.034 0.77875,0.3437 0.79,0.7262 -0.0925,0.1063 -0.12875,0.13 -0.3,0.33 -0.665,0.8038 0.0188,1.135 0.89625,1.5 0.895,0.3688 0.855,0.3675 1.30125,0.5363 0.41,-0.4525 2.83125,-3.1463 3.28,-3.6238 -0.12375,-0.2725 -0.245,-0.4562 -0.60375,-1.1787 -0.62,-1.235 -0.92875,-1.4213 -1.6725,-0.7713 -0.2225,0.2063 -0.2025,0.2 -0.34,0.325 -0.21375,-0.018 -0.76125,-0.2637 -0.75125,-0.7462 M 36.715,898.1072 l 2.84375,-2.98375 -5.06125,-2.2275 c 0,0 -0.085,-0.0312 -0.14375,0.025 -0.0613,0.065 -0.0112,0.1475 -0.0112,0.1475 l 2.3725,5.03875 z m 3.7825,3.45375 c -0.37625,0.40625 -1.97,2.28625 -2.97625,3.51625 -0.31375,0.1 -0.82375,-0.29375 -0.85625,-0.6525 0.0425,-0.0987 0.205,-0.25875 0.335,-0.51 0.2675,-0.5525 0.40625,-0.88 -0.48,-2.7775 -0.6525,-1.40625 -2.73,-5.95875 -3.74375,-8.15875 -0.28375,-0.61375 -0.62625,-0.9825 -0.69125,-1.11625 0.115,-0.24 0.98625,-1.81625 1.02625,-1.9225 0.05,-0.1075 0.1025,-0.19375 0.31,-0.10375 0.21125,0.0888 8.97375,3.9575 9.78,4.2875 0.55625,0.23875 1.9575,1.01875 2.78,0.3525 0.205,-0.16875 0.275,-0.2375 0.54,-0.4375 0.23625,0.035 0.73625,0.4025 0.7075,0.845 -1.9225,1.74 -3.4675,3.2325 -4.06375,3.835 -0.28875,0.0412 -0.76,-0.35625 -0.76,-0.735 0.0888,-0.0975 0.13875,-0.1275 0.30625,-0.33125 0.67875,-0.78125 -0.006,-1.13375 -0.86125,-1.51 -0.8875,-0.39625 -0.84,-0.39 -1.2825,-0.58125 -0.42125,0.44375 -2.92125,3.07625 -3.3725,3.545 0.1225,0.28125 0.2375,0.4625 0.58,1.1925 0.57375,1.245 0.88875,1.4475 1.6425,0.815 0.24,-0.1975 0.2075,-0.1925 0.345,-0.31375 0.20875,0.0137 0.755,0.27625 0.735,0.76125 m -23.9725,65.04375 -0.52375,-4.0975 -4.9225,2.52875 c 0,0 -0.0738,0.0388 -0.07,0.12875 0.0125,0.0712 0.10125,0.0975 0.10125,0.0975 l 5.415,1.3425 z m 5.0675,-0.75875 c 0.0838,0.54125 0.51875,2.96625 0.845,4.5425 -0.11875,0.29 -0.7375,0.4475 -1.04625,0.24625 -0.0425,-0.0937 -0.0713,-0.32625 -0.1875,-0.5825 -0.2475,-0.5625 -0.425,-0.87375 -2.44625,-1.3875 -1.51625,-0.385 -6.35375,-1.64125 -8.705,-2.245 -0.64875,-0.165 -1.15125,-0.1325 -1.3,-0.17 -0.115,-0.24375 -0.79625,-1.90875 -0.845,-2.0125 -0.0475,-0.1 -0.08,-0.19375 0.12375,-0.30625 0.195,-0.1025 8.73375,-4.4625 9.51125,-4.88 0.5225,-0.27875 2.01375,-0.87625 2.0175,-1.93625 0,-0.26375 -0.0125,-0.36375 0.002,-0.6875 0.17375,-0.17 0.77625,-0.31875 1.10125,-0.0162 0.135,2.58875 0.315,4.72625 0.41625,5.57 -0.1625,0.25125 -0.76625,0.36375 -1.065,0.1225 -0.01,-0.13 -0.01,-0.18875 -0.0513,-0.4375 -0.18375,-1.0338 -0.8775,-0.7213 -1.72375,-0.2913 -0.86875,0.4325 -0.835,0.4125 -1.25125,0.6275 0.0687,0.605 0.53625,4.21375 0.62,4.85875 0.285,0.0787 0.49625,0.115 1.2825,0.30625 1.33375,0.33125 1.69375,0.21625 1.67625,-0.76 -0.01,-0.32 -0.0162,-0.29125 -0.025,-0.475 0.14375,-0.14625 0.68375,-0.4075 1.05,-0.0863 m -10.0825,-14.2787 c -0.3875,-0.10125 -0.88625,-0.26125 -1.31875,-0.63375 -0.375,-0.3175 -0.85625,-0.8625 -0.83,-2.105 0.01,-0.30125 0.1,-0.935 0.15625,-1.69 0,0 6.10125,0.45375 7.54,0.57625 2.13,0.17875 2.45375,0.36375 2.54,1.4575 0.005,0.13375 0.005,0.34375 0.005,0.5675 0.22125,0.1675 0.85,0.17625 1.11125,0.0238 0.0975,-1.805 0.31875,-4.1425 0.54625,-6.0775 -0.22,-0.235 -0.87,-0.32125 -1.085,-0.165 -0.045,0.23 -0.0975,0.45625 -0.15375,0.65125 -0.3025,1.0925 -0.82875,1.15375 -2.71125,0.99875 -1.04375,-0.095 -0.96,-0.0775 -7.55375,-0.7475 0.1,-0.95875 0.19875,-1.89125 0.26375,-2.2925 0.195,-1.1475 1.17,-1.3425 1.475,-1.41 0.30875,-0.0612 0.66625,-0.0963 1.06875,-0.0838 0.2625,-0.28125 0.2475,-0.9475 0.0637,-1.1275 -0.51625,-0.0487 -2.9825,-0.1925 -3.64125,-0.28375 -0.76,5.06875 -0.98875,7.88125 -1.1125,12.47375 0.19,0.0788 3.005,0.89125 3.3125,0.98875 0.35625,-0.2325 0.46375,-0.8125 0.32375,-1.12125 m 68.67625,83.025 -3.995,-1.0387 0.52125,5.5162 c 0,0 0,0.089 0.0813,0.115 0.0837,0.016 0.135,-0.062 0.135,-0.062 l 3.2575,-4.53 z m 1.18875,-4.975 c 0.54,0.1225 2.95125,0.6175 4.525,0.89 0.2325,0.23 0.13375,0.8638 -0.16375,1.0725 -0.10125,0 -0.32625,-0.06 -0.60375,-0.047 -0.61,0.026 -0.96875,0.065 -2.2,1.765 -1.16625,1.605 -5.68625,7.7275 -6.0825,8.29 -0.32375,0.061 -1.94625,0.1225 -2.06,0.1313 -0.11375,0 -0.21125,0 -0.23875,-0.225 -0.0188,-0.225 -0.89875,-9.7638 -0.99375,-10.6475 -0.0637,-0.5825 -0.06,-2.1888 -1.0425,-2.585 -0.2525,-0.1038 -0.35125,-0.1263 -0.6475,-0.2613 -0.0788,-0.225 -0.002,-0.8375 0.395,-1.0237 2.46125,0.8337 4.50875,1.455 5.33125,1.6812 0.17125,0.2425 0.0538,0.85 -0.28625,1.0188 -0.12125,-0.024 -0.17875,-0.044 -0.43,-0.1038 -1.02125,-0.2137 -0.9875,0.545 -0.9075,1.4888 0.0838,0.9662 0.0738,0.925 0.11625,1.3987 0.59375,0.16 4.115,1.0588 4.74375,1.2313 0.17875,-0.235 0.29125,-0.4238 0.765,-1.0825 0.8,-1.1163 0.8325,-1.485 -0.085,-1.8325 -0.29625,-0.1125 -0.27,-0.094 -0.4525,-0.1538 -0.0813,-0.1862 -0.1175,-0.7912 0.3175,-1.005 m -4.44625,-151.53 c 0,0 1.56125,0.365 4.26,-0.22375 2.70625,-0.59125 4.27125,-2.73625 3.77375,-4.915 -0.545,-2.43375 -2.69125,-2.82125 -4.55625,-3.20875 -2.03125,-0.425 -2.99375,-0.66875 -3.27,-1.66 -0.19375,-0.67 -0.115,-2.075 1.99875,-2.4425 2.32625,-0.39125 2.90875,1.5475 3.04625,1.795 0.4825,0.13125 0.86,-10e-4 1.09375,-0.36 -0.13875,-0.73625 -0.76625,-2.55625 -0.9875,-2.83875 -0.66875,0.0213 -1.71,-0.12625 -3.715,0.32375 -4.175,0.9625 -4.08625,3.9125 -3.46375,5.265 0.475,1.0525 1.33,1.82 4.27875,2.37875 2.0525,0.39 3.17,0.8825 3.325,2.19875 0.10875,0.9025 -0.33875,1.95125 -1.94375,2.32125 -2.5075,0.59375 -3.06875,-1.06875 -3.6875,-2.4025 -0.42125,-0.09 -0.9775,0.11 -1.19125,0.345 0.16375,0.8025 0.5125,2.16125 1.03875,3.42375 m -12.58875,5.36375 c 1.59625,-0.78125 3.4775,-1.63625 5.74625,-2.53875 0.11,-0.305 -0.1675,-0.935 -0.40875,-1.04875 -0.2775,0.095 -0.48,0.16875 -0.67125,0.21125 -1.11,0.2575 -1.4425,-0.1725 -2.18,-1.905 -0.425,-1.005 -1.28875,-3.04875 -2.05125,-4.83875 -0.535,-1.24 -0.89625,-2.2775 0.29,-2.94 0.10625,-0.0525 0.26125,-0.12625 0.50625,-0.25375 0.14625,-0.2825 -0.10125,-0.935 -0.41625,-1.0175 -1.5925,0.63125 -3.9375,1.65125 -6.0575,2.655 -0.0962,0.2525 0.18125,0.87625 0.4975,0.965 0.2,-0.0788 0.33375,-0.14875 0.5625,-0.2275 1.32125,-0.47375 1.73625,0.8375 2.1975,1.83375 0.465,0.975 1.56875,3.42 2.19,4.76 0.94375,2.06875 0.78875,2.33875 -0.14,2.98625 -0.15125,0.11625 -0.37625,0.235 -0.57625,0.345 -0.035,0.26875 0.24125,0.83875 0.51125,1.01375 M 42.62315,1008.401 c 0,0 -0.42375,-1.5425 -2.22125,-3.6413 -1.785,-2.0975 -4.41625,-2.47 -6.09625,-0.9825 -1.8875,1.6238 -1.2125,3.695 -0.67375,5.52 0.58875,1.9875 0.82875,2.9488 0.0913,3.6688 -0.50625,0.4787 -1.77875,1.0862 -3.09875,-0.6138 -1.45125,-1.8575 -0.0238,-3.2825 0.135,-3.525 -0.11125,-0.4862 -0.41125,-0.7587 -0.82625,-0.7925 -0.58875,0.47 -1.89625,1.8925 -2.0475,2.2225 0.3425,0.5713 0.70125,1.5575 2.05125,3.1113 2.825,3.2262 5.375,1.74 6.27875,0.5575 0.7025,-0.9175 0.97125,-2.0363 0.0737,-4.8975 -0.63625,-1.9988 -0.725,-3.2138 0.35875,-3.9725 0.74375,-0.5163 1.87625,-0.6075 2.96,0.61 1.7,1.9287 0.505,3.2162 -0.36875,4.3862 0.115,0.415 0.5575,0.8138 0.86625,0.8975 0.62625,-0.5287 1.65375,-1.485 2.5175,-2.5487 M 112.0894,876.1572 c 0,0 1.2375,1.00875 3.9275,1.65375 2.6825,0.65875 5.03625,-0.59125 5.535,-2.76 0.57125,-2.42375 -1.19,-3.71 -2.68875,-4.88 -1.64,-1.2725 -2.39375,-1.90875 -2.2175,-2.92625 0.1225,-0.68 0.80875,-1.905 2.86875,-1.31125 2.25875,0.65375 1.94,2.65625 1.9575,2.9375 0.36625,0.33 0.77375,0.3775 1.1325,0.15125 0.19625,-0.7225 0.43125,-2.63375 0.35875,-2.99 -0.60625,-0.265 -1.485,-0.8575 -3.48875,-1.3175 -4.165,-0.97 -5.37375,1.725 -5.4125,3.2075 -0.025,1.16 0.4075,2.2275 2.80875,4.01 1.6825,1.245 2.46625,2.19 2.0325,3.43375 -0.3,0.86375 -1.16625,1.60375 -2.77125,1.24125 -2.50625,-0.57125 -2.29,-2.29875 -2.265,-3.78125 -0.335,-0.26125 -0.93125,-0.32375 -1.22375,-0.205 -0.2025,0.79 -0.47625,2.165 -0.55375,3.53625 m -53.19625,10.25125 c -0.455,-1.595 -1.0025,-2.85625 -1.32125,-3.71875 -0.61,-0.19625 -0.9125,0.20375 -1.00375,0.42625 0.10125,0.275 0.23,0.77125 0.27125,1.04 0.05,0.2725 0.09,1.16875 -0.2075,1.7325 -0.285,0.5525 -0.9575,1.065 -1.405,1.38375 -0.4575,0.3225 -0.9875,0.61125 -1.165,0.69875 -1.0375,0.48625 -1.26625,0.1775 -2.37125,-1.34875 -0.9325,-1.3075 -1.96375,-2.76125 -3.06375,-4.3025 -0.68,-0.94375 -1.52,-2.07625 -0.4775,-2.87875 0.0987,-0.0775 0.1975,-0.15875 0.40125,-0.33 0.0238,-0.39375 -0.345,-0.8475 -0.65,-0.8525 -1.24625,0.8425 -3.12125,2.1425 -4.9925,3.61125 -0.0425,0.28125 0.3425,0.8075 0.6675,0.8275 0.17625,-0.11 0.27125,-0.1625 0.47875,-0.29 1.185,-0.73875 1.8525,0.48375 2.49875,1.375 0.55,0.75125 2.2825,3.125 3.12625,4.2825 1.2675,1.73875 1.32375,2.105 0.54875,2.8825 -0.1025,0.10375 -0.2575,0.235 -0.43125,0.37875 0.0237,0.28125 0.3825,0.73375 0.67625,0.84125 1.43125,-1.13125 4.98125,-3.7275 8.42,-5.75875 m 94.9875,12.015 c 1.26375,1.26375 2.67375,2.76 4.25875,4.6175 0.3225,0.004 0.83625,-0.46 0.87375,-0.72375 -0.185,-0.2275 -0.33125,-0.4025 -0.42875,-0.56375 -0.6025,-0.97375 -0.3025,-1.42 1.11,-2.68875 0.81,-0.72375 2.46875,-2.2025 3.90875,-3.4975 1.00375,-0.90125 1.86,-1.58 2.86875,-0.67625 0.0888,0.0875 0.2075,0.2075 0.40125,0.395 0.31125,0.04 0.8525,-0.4025 0.82875,-0.71625 -1.11375,-1.31 -2.82875,-3.19625 -4.4675,-4.8725 -0.26375,-0.02 -0.76125,0.45625 -0.75,0.77875 0.13125,0.17 0.24375,0.26875 0.40375,0.4625 0.86375,1.09625 -0.2275,1.9 -1.03125,2.66875 -0.77,0.74875 -2.7275,2.5875 -3.79375,3.60375 -1.6625,1.56125 -1.955,1.5075 -2.87875,0.83375 -0.14125,-0.11 -0.35125,-0.27 -0.50625,-0.4275 -0.2675,0.0475 -0.72,0.50125 -0.7975,0.80625 M 53.1075,1016.9122 c -1.43625,-1.0425 -3.0825,-2.2987 -4.94875,-3.8675 -0.3175,0.048 -0.74875,0.5913 -0.7325,0.8563 0.22,0.1987 0.37375,0.3262 0.5075,0.4875 0.7475,0.8637 0.5225,1.355 -0.655,2.83 -0.685,0.8462 -2.0775,2.5787 -3.29375,4.0875 -0.84375,1.0512 -1.58,1.8675 -2.73,1.1337 -0.0975,-0.058 -0.2325,-0.165 -0.4575,-0.325 -0.31375,0.01 -0.765,0.5338 -0.695,0.8525 1.3075,1.09 3.3125,2.69 5.19625,4.085 0.2775,-0.03 0.6825,-0.58 0.6125,-0.8962 -0.15375,-0.1438 -0.28375,-0.2288 -0.4625,-0.395 -1.03875,-0.9375 -0.0862,-1.915 0.57375,-2.7975 0.64375,-0.87 2.2675,-3.005 3.16,-4.1838 1.3825,-1.8112 1.69125,-1.8012 2.7025,-1.2962 0.16625,0.087 0.38875,0.2287 0.5775,0.3437 0.25375,-0.091 0.61875,-0.6025 0.645,-0.915 m 73.80125,-136.11125 c 1.655,0.6575 3.5575,1.45625 5.76,2.5075 0.28875,-0.12875 0.57375,-0.76375 0.49625,-1.0125 -0.26,-0.13625 -0.4475,-0.23 -0.615,-0.34625 -0.9375,-0.64625 -0.85,-1.1725 -0.0738,-2.89125 0.45625,-1.00125 1.37,-3.02125 2.16125,-4.78 0.56,-1.2375 1.07,-2.20625 2.3625,-1.78375 0.11375,0.035 0.2675,0.10375 0.535,0.20125 0.29875,-0.0875 0.60625,-0.7175 0.45125,-0.99875 -1.53125,-0.74125 -3.8625,-1.775 -6.04875,-2.65625 -0.25125,0.0975 -0.51625,0.7275 -0.36875,1.0175 0.18125,0.0987 0.335,0.15125 0.54875,0.26625 1.23875,0.645 0.57,1.82875 0.1375,2.85625 -0.3975,0.99375 -1.45,3.46625 -2.01625,4.83125 -0.8775,2.0975 -1.1825,2.16875 -2.2875,1.92375 -0.18625,-0.04 -0.43,-0.11625 -0.64375,-0.1875 -0.2275,0.15125 -0.45625,0.74625 -0.39875,1.0525 m 39.6525,113.3 c 0.115,-0.17875 0.24375,-0.36 0.3725,-0.5375 0.6675,-0.85375 1.14875,-1.31 2.745,-0.44875 0.36,0.1925 1.58125,0.9275 1.98,1.16 -0.725,1.2925 -1.0675,1.86375 -1.79375,3.0475 0.22875,0.34375 0.6975,0.65 1.14625,0.74125 0.69625,-1.175 1.055,-1.785 1.855,-3.13625 0.36625,0.1975 3.19375,1.75375 3.4975,1.9525 0.31375,0.21125 0.48,0.3625 0.21125,0.8825 -0.2775,0.52375 -0.64875,1.2675 -1.3775,2.2875 -1.16625,1.6638 -3.5225,0.6938 -4.1975,0.4263 -0.42875,0.2325 -0.59625,0.64 -0.51125,1.15 1.025,0.5162 3.085,1.4275 3.9825,1.925 2.63,-4.0588 4.0075,-6.56005 5.52875,-9.6263 -0.1325,-0.25875 -0.62125,-0.55875 -0.93875,-0.505 -0.0662,0.105 -0.13125,0.1975 -0.26125,0.40375 -0.72625,1.1525 -1.545,0.65125 -2.90625,-0.0813 -0.87625,-0.475 -2.76625,-1.5525 -4.6625,-2.53 -2.115,-1.1075 -2.07875,-1.5175 -1.675,-2.53375 0.06,-0.165 0.0737,-0.18625 0.15875,-0.39125 -0.21125,-0.295 -0.7,-0.5075 -0.9575,-0.4725 -0.985,1.9975 -2.055,3.9625 -3.1025,5.71625 0.13625,0.31625 0.6325,0.54 0.90625,0.57 m -102.28745,39.5663 c -0.245,0.3163 -0.5825,0.7163 -1.0825,0.9863 -0.44125,0.235 -1.12625,0.4675 -2.27125,-0.019 -0.28125,-0.1275 -0.84125,-0.42 -1.5175,-0.7563 0,0 2.715,-5.5025 3.36375,-6.7862 0.97125,-1.9163 1.2625,-2.1525 2.315,-1.8225 0.135,0.047 0.31875,0.1187 0.53375,0.2 0.23625,-0.145 0.4775,-0.7213 0.43125,-1.0163 -1.63375,-0.7675 -3.72875,-1.8425 -5.44125,-2.7675 -0.30875,0.105 -0.6275,0.6738 -0.5625,0.945 0.1975,0.1263 0.39125,0.2588 0.54625,0.38 0.905,0.6975 0.7575,1.2188 -0.0975,2.905 -0.47625,0.9375 -0.4225,0.8663 -3.52125,6.7175 -0.8475,-0.4425 -1.67,-0.9012 -2.02125,-1.115 -0.98625,-0.6125 -0.80375,-1.5888 -0.75875,-1.8913 0.0563,-0.3112 0.16375,-0.6587 0.33125,-1.0212 -0.1675,-0.3575 -0.7875,-0.5863 -1.02125,-0.4825 -0.23875,0.4575 -1.2975,2.6937 -1.62375,3.26 4.4875,2.6287 6.94125,3.8662 11.1475,5.7037 0.15125,-0.1475 1.95875,-2.4512 2.1625,-2.7062 -0.08,-0.405 -0.58375,-0.7175 -0.9125,-0.7138 m 37.06375,7.0138 c -0.085,0.3875 -0.22875,0.8987 -0.58,1.3462 -0.2825,0.4 -0.80625,0.8963 -2.0475,0.9375 -0.3075,0.011 -0.93375,-0.041 -1.6925,-0.065 0,0 0.1325,-6.1137 0.17125,-7.5475 0.0687,-2.145 0.22125,-2.4862 1.32,-2.62 0.13875,-0.026 0.3525,-0.03 0.57,-0.043 0.15625,-0.2275 0.135,-0.8437 -0.04,-1.115 -1.805,0 -4.15125,-0.094 -6.08875,-0.2175 -0.22625,0.2263 -0.2775,0.885 -0.115,1.0938 0.24125,0.029 0.47,0.07 0.65875,0.1125 1.1125,0.245 1.20625,0.7687 1.14625,2.6562 -0.0425,1.0488 -0.0275,0.96 -0.345,7.5813 -0.96125,-0.047 -1.90375,-0.086 -2.305,-0.1338 -1.1625,-0.1337 -1.40375,-1.0962 -1.49375,-1.3987 -0.0813,-0.3088 -0.125,-0.6675 -0.13,-1.0563 -0.3,-0.2612 -0.9625,-0.205 -1.13625,-0.014 -0.0137,0.5213 -0.0337,2.99 -0.0912,3.6463 5.09875,0.4925 7.915,0.58 12.5125,0.4562 0.0687,-0.1862 0.74,-3.04 0.815,-3.365 -0.2475,-0.34 -0.82625,-0.4137 -1.12875,-0.255 m -0.58,-171.6813 c 0,-1.1275 -0.91875,-2.04 -2.035,-2.04 -1.13375,0 -2.0475,0.9125 -2.0475,2.04 0,1.12625 0.91375,2.0375 2.0475,2.0375 1.12375,0 2.035,-0.91125 2.035,-2.0375 m 76.74625,90.8725 c 0.11125,-1.1225 1.32,-0.92625 2.74625,-0.70125 1.19875,0.19375 4.9325,0.75 6.47375,1.055 -0.865,0.21625 -5.41,1.48875 -7.23,2.09875 -1.825,0.60625 -3.1825,0.9075 -3.53875,0.965 -0.17,0.19625 -0.22375,0.5575 -0.0888,0.815 0.60875,0.34875 1.29125,0.72 3.11125,1.9975 1.78625,1.24875 5.3325,3.4 6.4225,4.20125 -1.09625,-0.095 -5.19875,-0.56625 -7.03125,-0.79125 -2.0475,-0.24125 -1.99875,-0.61625 -1.96125,-1.29625 0.005,-0.115 0.0275,-0.32125 0.0575,-0.47875 -0.2075,-0.24375 -0.77875,-0.34375 -1.04625,-0.195 -0.3025,1.63875 -0.47375,2.565 -1.19875,5.495 0.1375,0.28625 0.7475,0.43 1.02625,0.27 0.0925,-0.32625 0.0962,-0.34375 0.22,-0.7525 0.26125,-0.83875 1.0625,-0.78 2.88125,-0.66875 1.5525,0.10375 4.2825,0.50125 6.0675,0.7425 1.615,0.2325 1.66375,0.66 1.57125,1.4275 -0.0225,0.1975 -0.0263,0.25375 -0.0838,0.51875 0.19375,0.36875 0.78,0.48375 1.0325,0.26375 0.35875,-1.45125 0.78375,-3.4375 1.01,-4.755 -0.85875,-0.2525 -1.78375,-0.83375 -2.46875,-1.29375 -0.30375,-0.20875 -5.1275,-3.30875 -6.00625,-3.99375 1.75125,-0.675 5.68,-1.85875 7.1225,-2.33625 1.16625,-0.37375 1.82625,-0.41375 2.4525,-0.33625 0.18125,-1.87125 0.25,-3.0875 0.33625,-4.8925 -0.30375,-0.285 -0.80625,-0.285 -1.06,-0.0575 -0.0175,0.2775 -0.025,0.265 -0.04,0.54875 -0.1025,1.41625 -1.4025,1.16875 -2.7,1.02125 -0.7575,-0.0787 -4.4,-0.77375 -5.705,-1.08375 -2.03125,-0.49375 -2.06625,-0.93 -2.12875,-1.6775 -0.0163,-0.18625 0,-0.2875 -0.0163,-0.5375 -0.3325,-0.37 -0.86375,-0.27375 -1.0675,-0.005 -0.0487,1.8175 -0.1225,2.86 -0.28375,4.9875 0.235,0.3325 0.80625,0.3675 1.075,0.1075 l 0.0487,-0.6625 z m -70.89,71.3038 c -0.26375,1.65 -0.3025,3.0112 -0.3725,3.9312 0.47375,0.4238 0.925,0.195 1.08875,0.03 0.0288,-0.29 0.1225,-0.79 0.195,-1.055 0.07,-0.2675 0.415,-1.105 0.905,-1.4862 0.505,-0.3825 1.3225,-0.5613 1.875,-0.67 0.54625,-0.099 1.1525,-0.14 1.35375,-0.1363 1.1325,0 1.21375,0.37 1.5675,2.2263 0.29875,1.5725 0.625,3.3362 0.9825,5.1962 0.2125,1.1463 0.4975,2.53 -0.78125,2.82 -0.12,0.027 -0.2375,0.055 -0.505,0.125 -0.18875,0.3425 -0.05,0.9213 0.22625,1.0438 1.48375,-0.2363 3.70875,-0.6438 6.05375,-1.1913 0.15875,-0.2275 0.0312,-0.8587 -0.2575,-1.0175 -0.2075,0.016 -0.30875,0.033 -0.54875,0.056 -1.39125,0.1675 -1.48125,-1.2162 -1.7,-2.3012 -0.17125,-0.9125 -0.74375,-3.795 -1.0275,-5.2 -0.4175,-2.1113 -0.31875,-2.4713 0.7075,-2.8488 0.14,-0.044 0.34375,-0.1112 0.555,-0.1712 0.0987,-0.255 -0.04,-0.8163 -0.26,-1.0388 -1.65875,0.4075 -6.09,1.3038 -10.0575,1.6875 M 22.3188,929.0335 c -4.27125,0.14125 -4.84125,0.32 -8.2275,0.39 -1.21125,0.0275 -1.76625,0.0275 -1.59375,-0.9563 0.0488,-0.2525 0.0888,-0.4125 0.1175,-0.54 -0.2075,-0.3125 -0.7775,-0.4525 -1.01,-0.26875 -0.57,1.8775 -1.065,3.80375 -1.54375,5.92375 0.2025,0.38875 0.80625,0.35375 1.0175,0.255 0.065,-0.185 0.1275,-0.41 0.23875,-0.65375 0.445,-0.95 0.9225,-1.1075 2.45875,-1.2125 0.875,-0.0575 10.36875,-0.5425 10.59,-0.55875 0.2275,-0.0163 0.30125,-0.2225 0.29125,-0.34 0,-0.1275 -0.0487,-1.42625 -0.0875,-2.0225 -2.60875,-2.01875 -6.35375,-5.27375 -7.835,-6.545 -1.47875,-1.27375 -1.58125,-1.7875 -1.3975,-2.32375 0.095,-0.27125 0.16375,-0.45375 0.24125,-0.6375 -0.15375,-0.33625 -0.71125,-0.605 -0.97125,-0.40875 -0.5625,1.35625 -1.34375,3.37 -1.785,4.715 0.1325,0.36 0.71875,0.56625 0.98625,0.39875 0.065,-0.185 0.13125,-0.37125 0.20375,-0.5175 0.31,-0.62125 0.57875,-0.96875 1.84375,0.0137 1.99625,1.5375 4.46625,3.62625 6.4625,5.28875 m 155.94875,15.05125 c 3.82625,-1.905 4.265,-2.3 7.33,-3.77375 1.085,-0.51625 1.59125,-0.74625 1.83,0.21625 0.07,0.24375 0.10625,0.40375 0.12375,0.53625 0.3125,0.20125 0.90375,0.0937 1.03875,-0.1725 -0.26125,-1.94125 -0.61125,-3.895 -1.0525,-6.03125 -0.34875,-0.27 -0.87875,0.01 -1.035,0.18375 0.0213,0.205 0.0613,0.43 0.0575,0.7075 -0.007,1.03875 -0.3825,1.39125 -1.73625,2.12 -0.77375,0.4225 -9.20625,4.78125 -9.415,4.895 -0.18625,0.11125 -0.18,0.335 -0.1225,0.4375 0.0662,0.1075 0.63625,1.2675 0.92375,1.79625 3.21375,0.7525 7.97,2.16875 9.83625,2.71625 1.88375,0.54875 2.185,0.96875 2.235,1.54125 0.0362,0.27375 0.04,0.4675 0.0475,0.67375 0.2775,0.2375 0.8875,0.245 1.05625,-0.0325 -0.0613,-1.47 -0.175,-3.62625 -0.34,-5.0275 -0.25875,-0.285 -0.88875,-0.22375 -1.05,0.04 0.007,0.1925 0.0325,0.39125 0.0275,0.55625 -0.0275,0.69625 -0.12625,1.11125 -1.69125,0.75125 -2.44625,-0.575 -5.5575,-1.44625 -8.06375,-2.13375 m -35.43125,73.29005 c -1.7775,1.1375 -3.3875,2.7725 -3.72375,3.1437 0.56625,1.0325 1.0475,2.1513 1.5925,3.2075 0.29875,0.069 1.015,-0.22 1.08375,-0.49 -0.13875,-0.4712 -0.47625,-1.1837 -0.37,-1.9725 0.155,-1.1125 0.98625,-2.0212 1.98125,-2.6625 0.93625,-0.6 4.03875,-2.025 6.73125,1.6963 2.805,3.8762 0.55125,6.7125 -0.85,7.5987 -1.26875,0.8063 -2.515,0.8263 -3.29,0.5863 -0.7575,-0.2413 -1.26,-0.8338 -1.63,-1.17 -0.27,-0.043 -0.8,0.4625 -0.84875,0.745 0.7175,0.95 1.56375,1.8187 2.185,2.7725 0.48125,-0.155 2.7975,-0.99 4.53125,-2.1313 1.98,-1.3025 3.68625,-3.2987 3.61625,-6.185 -0.0488,-2.2925 -1.5375,-4.79 -4.02375,-5.9287 -2.81125,-1.2763 -5.20875,-0.34 -6.985,0.79 m -14.5175,10.6912 c 2.81125,3.2175 3.30125,3.5263 5.505,6.1113 0.77625,0.92 1.0925,1.3062 0.23375,1.7975 -0.23375,0.1237 -0.375,0.2087 -0.505,0.2512 -0.1025,0.3625 0.1475,0.8875 0.43875,0.9663 1.8025,-0.755 3.62875,-1.5988 5.56,-2.5763 0.18,-0.4012 -0.22,-0.8462 -0.43125,-0.9537 -0.18875,0.075 -0.4,0.1712 -0.67625,0.2462 -1.00375,0.2525 -1.40625,0.027 -2.455,-1.0962 -0.5975,-0.6413 -6.96875,-7.6688 -7.11625,-7.8338 -0.16125,-0.1562 -0.35875,-0.094 -0.45625,-0.01 -0.0888,0.088 -1.0675,0.9338 -1.4975,1.35 0.0775,3.3013 -0.0825,8.245 -0.13625,10.1988 -0.045,1.9537 -0.37125,2.3462 -0.90875,2.55 -0.26875,0.095 -0.45625,0.1525 -0.6475,0.215 -0.16875,0.32 -0.0162,0.9275 0.29625,1.0062 1.41,-0.425 3.46375,-1.1175 4.7775,-1.62 0.20375,-0.33 -0.0175,-0.9237 -0.30875,-1.0225 -0.1875,0.068 -0.36875,0.13 -0.53,0.175 -0.68625,0.1513 -1.1175,0.16 -1.15,-1.4437 -0.075,-2.5175 -0.015,-5.7025 0.007,-8.3113 m 21.14,-136.4275 c 0.1275,-0.165 0.30625,-0.3775 0.7625,-0.98125 0.68375,-0.89625 0.9375,-0.78875 1.475,-0.53375 0.17125,0.0775 0.26875,0.12875 0.49,0.21625 0.30875,-0.015 0.6925,-0.65875 0.6125,-0.94 -1.23125,-0.77 -3.02625,-2.085 -4.60625,-3.3975 -0.47375,0.015 -0.8175,0.52 -0.7575,0.835 0.19375,0.18875 0.40625,0.41125 0.74125,0.78125 0.6675,0.7525 0.6425,0.815 0.0475,1.61875 -0.29125,0.41125 -0.45625,0.6475 -0.6775,0.90125 -0.48,0.59625 -0.945,0.705 -1.71875,0.20125 -0.30875,-0.20125 -0.485,-0.3325 -0.96875,-0.7225 -0.7675,-0.605 -3.19125,-2.86625 -0.82,-6.80375 2.47375,-4.10875 6.04375,-3.125 7.41375,-2.13375 1.13625,0.82 1.6375,1.70875 1.74125,2.59375 0.0925,0.8875 -0.3,1.67375 -0.4775,2.19 0.0725,0.30125 0.6425,0.50375 0.96125,0.43375 0.6525,-1.1425 1.25125,-2.105 1.89125,-3.0425 -0.33375,-0.40125 -1.07375,-1.43125 -3.46625,-3.165 -2.03625,-1.47875 -4.7175,-2.43375 -7.52125,-1.1925 -2.1075,0.93 -3.81625,3.27375 -3.86375,6.02 -0.07,3.12625 1.74375,4.8975 3.38375,6.08875 1.87375,1.38875 3.43125,2.01375 4.46625,2.44375 0.285,-0.5425 0.53625,-0.9375 0.89125,-1.41125 m 24.565,41.7075 c 1.65875,-0.009 3.01125,-0.18875 3.925,-0.27 0.35375,-0.53875 0.0563,-0.93625 -0.13,-1.075 -0.29875,0.0187 -0.80375,0.01 -1.0825,-0.0187 -0.27625,-0.0325 -1.155,-0.23375 -1.61375,-0.6725 -0.455,-0.42625 -0.76125,-1.20875 -0.95125,-1.725 -0.185,-0.52625 -0.31875,-1.115 -0.35375,-1.31625 -0.18,-1.1225 0.1725,-1.26625 1.95,-1.91125 1.49875,-0.545 3.22,-1.16125 5.0025,-1.81125 1.1025,-0.395 2.39125,-0.87625 2.88875,0.3475 0.05,0.115 0.0975,0.2275 0.20375,0.475 0.36625,0.12125 0.91125,-0.10625 0.9975,-0.3975 -0.4725,-1.4275 -1.20125,-3.57625 -2.1425,-5.78375 -0.25375,-0.12 -0.86125,0.11125 -0.96625,0.4125 0.05,0.19625 0.0737,0.29875 0.155,0.5375 0.375,1.3425 -0.995,1.6625 -2.03,2.04125 -0.87125,0.32625 -3.61875,1.34625 -4.97125,1.8425 -2.015,0.755 -2.38125,0.71125 -2.92625,-0.24625 -0.0675,-0.12125 -0.14875,-0.3075 -0.245,-0.5125 -0.28,-0.0562 -0.8075,0.1675 -0.99375,0.4225 0.695,1.5725 2.265,5.8025 3.28375,9.66125 m -6.00325,-15.55125 c -1.82875,-3.55 -4.21875,-7.245 -5.2625,-8.7375 0.1275,-0.29125 0.6025,-0.62375 0.8825,-0.6275 0.145,0.1825 0.25875,0.3425 0.35875,0.45 0.73125,0.825 1.09875,0.785 2.9075,-0.3825 1.21625,-0.7775 3.685,-2.365 4.46,-2.86125 0.925,-0.60125 2.185,-1.1925 1.53375,-2.42375 -0.12375,-0.2175 -0.18,-0.3 -0.28,-0.48375 0.0462,-0.33 0.59625,-0.6825 0.86625,-0.61875 1.36,1.94625 2.55125,3.90125 3.31625,5.2 -0.0163,0.2975 -0.51375,0.63125 -0.89,0.59125 -0.1575,-0.21375 -0.23375,-0.32 -0.29875,-0.4175 -0.7425,-1.08875 -1.93,-0.3175 -2.915,0.3025 -1.59375,1.0075 -3.10125,1.95625 -4.455,2.81 -1.5975,1.00375 -1.91375,1.2225 -1.495,2.28375 0.0725,0.1875 0.335,0.73 0.6275,1.205 0.29625,0.46375 0.76125,1.17125 1.30875,1.49 0.52625,0.32375 1.44125,0.33375 1.71125,0.31 0.26375,-0.035 0.77125,-0.13625 1.05125,-0.215 0.22,0.10375 0.59625,0.42875 0.35875,1.025 -0.87625,0.27 -2.16875,0.74125 -3.78625,1.1" />
    <path
       id="path4181"
       style="fill:#ffffff;fill-opacity:1;fill-rule:nonzero;stroke:none"
       d="m 64.62875,1010.5272 -2.09,-1.3212 -0.7475,3.4337 2.8375,-2.1125 z m 1.75625,-2.725 c 0.425,0.2575 1.595,0.9413 2.48,1.4038 0.0888,0.1837 -0.0825,0.55 -0.3,0.605 -0.06,-0.013 -0.19125,-0.088 -0.35875,-0.1388 -0.36625,-0.096 -0.64625,-0.1712 -1.69875,0.5988 -1.01125,0.74 -4.875,3.5275 -5.2175,3.7812 -0.20625,-0.021 -1.01,-0.185 -1.08,-0.2075 -0.0763,-0.011 -0.135,-0.038 -0.10125,-0.17 0.025,-0.1337 1.3125,-6.0037 1.4175,-6.5525 0.0737,-0.3612 0.34375,-1.34 -0.16625,-1.7675 -0.135,-0.11 -0.1925,-0.135 -0.33,-0.2725 -0.0162,-0.1537 0.15125,-0.51 0.42875,-0.54 1.3075,0.945 2.3025,1.6125 2.83125,1.96 0.05,0.1775 -0.13,0.5175 -0.36625,0.5563 -0.065,-0.039 -0.0987,-0.07 -0.23625,-0.1425 -0.57,-0.3225 -0.66,0.1662 -0.7875,0.7375 -0.13375,0.595 -0.14125,0.6012 -0.2,0.8837 0.32,0.2113 2.15375,1.3613 2.49875,1.5838 0.1475,-0.1075 0.275,-0.2163 0.68625,-0.5113 0.6875,-0.5112 0.83,-0.7037 0.355,-1.08 -0.1575,-0.125 -0.1475,-0.1137 -0.24,-0.1837 -0.0137,-0.1325 0.0925,-0.495 0.385,-0.5438 m -11.1575,-7.565 c 0.0925,0.097 0.185,0.1963 0.27625,0.3 0.43875,0.5238 0.64625,0.8738 -0.0913,1.74 -0.165,0.1963 -0.7975,0.8525 -0.98125,1.0725 -0.705,-0.6175 -0.99875,-0.9112 -1.62625,-1.5075 -0.24375,0.096 -0.4975,0.35 -0.6075,0.6063 0.62375,0.5825 0.94875,0.88 1.6675,1.5462 -0.1675,0.2075 -1.5,1.725 -1.6625,1.8863 -0.1625,0.1625 -0.28125,0.2462 -0.5675,0.01 -0.28,-0.2288 -0.6875,-0.5625 -1.2175,-1.1488 -0.865,-0.9325 0.0488,-2.2375 0.30125,-2.62 -0.08,-0.2937 -0.30875,-0.4475 -0.63625,-0.4675 -0.4525,0.5588 -1.28875,1.6888 -1.70375,2.1763 2.12625,2.1437 3.4725,3.325 5.1525,4.6762 0.1725,-0.055 0.415,-0.3137 0.43125,-0.5 -0.0575,-0.074 -0.10125,-0.1087 -0.21125,-0.2262 -0.6075,-0.5963 -0.18875,-1.0288 0.43875,-1.76 0.4,-0.4763 1.305,-1.4813 2.165,-2.515 0.95375,-1.145 1.20875,-1.0763 1.77375,-0.69 0.0888,0.065 0.10625,0.075 0.22,0.1525 0.20375,-0.087 0.40375,-0.3625 0.41625,-0.5275 -1.06,-0.8525 -2.13625,-1.7963 -3.07125,-2.6788 -0.2075,0.04 -0.41,0.3213 -0.46625,0.4775 m -18.11375,-33 c -0.14625,-0.63875 -0.4975,-2.395 -0.61,-3.13875 -0.21375,-0.155 -0.49875,-0.0925 -0.66125,0.0762 0.0112,0.10875 0.025,0.1925 0.0325,0.40625 0.0412,0.58125 -0.21125,0.805 -1.45875,1.09625 -0.83125,0.19 -3.4575,0.66875 -4.01875,0.77875 0.5575,-0.63 1.295,-1.45625 2.44375,-2.7875 1.18375,-1.3925 2.43125,-2.9675 3.3525,-4.17125 -0.0263,-0.2125 -0.18125,-0.405 -0.3225,-0.47125 -0.39125,0.11875 -4.735,0.36625 -5.69375,0.45625 -1.3575,0.125 -1.54875,0.0487 -1.66375,-0.55125 -0.015,-0.11125 -0.025,-0.24375 -0.04,-0.345 -0.15625,-0.13125 -0.5675,-0.14625 -0.6775,0.0425 0.045,0.8275 0.165,2.1575 0.31,3.27875 0.17125,0.13125 0.49125,0.0925 0.645,-0.0712 0,-0.12125 0,-0.2975 -0.004,-0.4075 -0.03,-0.83875 0.35625,-0.9325 1.5125,-1.06875 0.5925,-0.065 2.8675,-0.21 3.48,-0.25875 -0.25375,0.325 -0.945,1.315 -2.14375,2.71125 -1.15,1.3325 -1.9825,2.2125 -2.30875,2.57375 -0.32125,0.3625 -0.4375,0.47125 -0.62625,0.57625 0.0563,0.125 0.09,0.235 0.11375,0.355 0.105,0.64 0.335,1.9325 0.45375,2.4025 0.2075,0.1025 0.5175,0.004 0.64625,-0.1575 -0.0275,-0.1675 -0.0488,-0.26875 -0.0575,-0.39625 -0.0712,-0.7625 0.58,-0.8125 1.45625,-0.985 0.88375,-0.16875 2.19625,-0.40875 3.29,-0.62 1.21,-0.24375 1.63,-0.11125 1.80125,0.445 0.0325,0.11375 0.085,0.32 0.10625,0.3975 0.22,0.145 0.52875,0.0738 0.6425,-0.16625 m 14.3625,28.18125 c -0.43125,-0.48 -1.5975,-1.84375 -2.06125,-2.44 -0.27,-0.0288 -0.4775,0.16875 -0.53875,0.39375 0.0687,0.0887 0.105,0.15875 0.2275,0.32875 0.31125,0.50125 0.20375,0.82 -0.74625,1.6775 -0.63125,0.575 -2.69,2.26875 -3.12375,2.63375 0.175,-0.82 0.42375,-1.90125 0.7775,-3.625 0.35625,-1.79375 0.68,-3.77125 0.89125,-5.27875 -0.12,-0.175 -0.34875,-0.2625 -0.50875,-0.245 -0.2725,0.2875 -3.96,2.62375 -4.75375,3.1675 -1.1225,0.7575 -1.33,0.7925 -1.7225,0.3225 -0.0637,-0.0825 -0.1375,-0.19375 -0.20375,-0.2925 -0.20375,-0.03 -0.5625,0.15875 -0.57,0.375 0.44875,0.70625 1.19875,1.81125 1.86625,2.71875 0.21875,0.03 0.465,-0.15625 0.53875,-0.3825 -0.0662,-0.0987 -0.16,-0.255 -0.2075,-0.35125 -0.43875,-0.72 -0.1425,-0.9825 0.79375,-1.65875 0.4925,-0.35625 2.41,-1.585 2.91875,-1.93 -0.0662,0.41 -0.18375,1.6175 -0.55625,3.415 -0.355,1.72 -0.65375,2.89 -0.76,3.38 -0.10125,0.46625 -0.16125,0.62125 -0.2725,0.79625 0.11125,0.0875 0.20375,0.16875 0.27625,0.25625 0.4075,0.51 1.23875,1.5263 1.565,1.8763 0.2275,0 0.45125,-0.245 0.49,-0.455 -0.1075,-0.12755 -0.17125,-0.2063 -0.24625,-0.3138 -0.43125,-0.62875 0.11125,-0.99125 0.8,-1.5675 0.69125,-0.5725 1.7125,-1.4325 2.5675,-2.14 0.9375,-0.79625 1.37,-0.895 1.78875,-0.48875 0.09,0.0837 0.2375,0.23625 0.29,0.3 0.25625,0.0175 0.49625,-0.2 0.48,-0.4725 m -11.12625,-17.8 c -0.84,-2.01125 -1.63875,-4.38875 -2.1575,-6.1475 -0.41125,0 -2.07375,0.24625 -2.3175,0.28125 -0.1875,0.265 -0.0738,0.60875 0.0987,0.7825 0.105,0 0.23125,0.003 0.5125,0.0275 0.7875,0.055 1.19,0.27625 1.47625,0.9775 0.07,0.18375 0.16625,0.445 0.2675,0.76 0.285,0.88875 0.36875,1.16 -0.82375,1.55 -0.17125,0.0575 -1.5225,0.54 -1.5225,0.54 -0.009,-0.0212 -0.74375,-2.17375 -0.74375,-2.17375 -0.26,-0.0387 -0.54,0.0613 -0.76,0.2325 0.007,0.0263 0.13375,0.46375 0.75375,2.23125 -0.24375,0.095 -1.95625,0.7375 -2.17375,0.8 -0.22375,0.0675 -0.36875,0.0775 -0.50625,-0.26 -0.1375,-0.3425 -0.4925,-1.26 -0.63875,-1.9275 -0.1625,-0.695 0.17125,-1.05625 0.4,-1.27 0.215,-0.18625 0.46375,-0.34625 0.62375,-0.43625 0.0475,-0.25875 -0.0863,-0.55125 -0.33,-0.70875 -0.49,0.18125 -1.5025,0.60375 -2.0125,0.82375 0.73125,2.60625 1.72625,5.24625 2.3425,6.735 0.18375,0.035 0.52,-0.0825 0.63125,-0.24875 -0.0238,-0.0775 -0.0488,-0.15125 -0.0987,-0.29375 -0.26,-0.815 0.30625,-0.99375 1.2125,-1.34625 0.7825,-0.2975 2.0325,-0.7675 3.06875,-1.1875 1.38625,-0.545 1.63625,-0.3375 1.95625,0.2775 0.0488,0.0913 0.065,0.1075 0.12125,0.2425 0.225,0.015 0.5375,-0.12125 0.62,-0.26125 m 118.47875,-5.015 c -0.63875,2.09125 -1.53125,4.455 -2.27,6.095 0.31375,0.265 1.7525,1.14 1.96,1.2725 0.31375,-0.0837 0.44125,-0.41625 0.425,-0.66125 -0.0812,-0.0713 -0.18,-0.15375 -0.38,-0.34625 -0.575,-0.5525 -0.73375,-0.98125 -0.5,-1.70125 0.0563,-0.1825 0.155,-0.4475 0.2675,-0.75875 0.35125,-0.865 0.4575,-1.1275 1.63125,-0.665 0.16625,0.0687 1.51625,0.55625 1.51625,0.55625 -0.009,0.025 -0.81,2.1525 -0.81,2.1525 0.165,0.1925 0.43875,0.29125 0.735,0.30375 0.006,-0.025 0.18875,-0.445 0.8325,-2.1975 0.24875,0.0837 1.98,0.68 2.185,0.77125 0.22875,0.0988 0.34125,0.17875 0.22875,0.5225 -0.115,0.35625 -0.44,1.29125 -0.7425,1.89125 -0.33125,0.64625 -0.8075,0.70625 -1.12125,0.7175 -0.28875,0.0225 -0.57375,-0.025 -0.7575,-0.055 -0.2,0.17 -0.2825,0.48625 -0.19625,0.7575 0.485,0.1775 1.54,0.49125 2.06625,0.6525 1.0525,-2.42375 1.9725,-5.00875 2.5,-6.67375 -0.0987,-0.1575 -0.45375,-0.275 -0.6325,-0.21625 -0.035,0.08 -0.0625,0.15125 -0.115,0.28875 -0.31625,0.79375 -0.8725,0.5625 -1.78875,0.2575 -0.795,-0.275 -2.0675,-0.70125 -3.1175,-1.045 -1.41875,-0.45875 -1.4825,-0.7925 -1.33625,-1.46125 0.025,-0.11375 0.0288,-0.12625 0.055,-0.26375 -0.16125,-0.15625 -0.48,-0.235 -0.635,-0.19375 m -81.895,40.23375 c -0.185,0.097 -0.3275,0.4863 -0.26125,0.6313 0.1375,0.075 0.27,0.1287 0.375,0.1962 0.62625,0.35 0.5825,0.6925 0.21125,1.8063 -0.0975,0.2962 -0.24375,0.7525 -0.43125,1.3037 0,0 -1.11,-0.3825 -2.01375,-0.7262 -0.8975,-0.3425 -1.9875,-0.8088 -1.9875,-0.8088 0.20375,-0.4875 0.40625,-0.9312 0.54625,-1.2625 0.54375,-1.2562 0.69875,-1.3937 1.3925,-1.2212 0.0825,0.02 0.205,0.058 0.34375,0.097 0.1375,-0.091 0.26,-0.4488 0.2225,-0.645 -1.16875,-0.4575 -2.5425,-1.05 -3.41125,-1.4513 -0.20375,0.085 -0.37875,0.4275 -0.31875,0.625 0.13125,0.076 0.2575,0.155 0.35875,0.22 0.5225,0.3663 0.5225,0.68 0.0337,1.7738 -0.27,0.5912 -0.88875,1.9412 -1.37,3.03 -0.31,0.7287 -0.64375,1.3825 -1.44,1.1362 -0.0688,-0.033 -0.1975,-0.076 -0.36125,-0.13 -0.21125,0.1113 -0.35,0.4575 -0.25125,0.6275 0.80125,0.3813 2.28875,1.0363 3.66625,1.5775 0.14,-0.064 0.34125,-0.4387 0.25375,-0.6212 -0.12375,-0.058 -0.14625,-0.081 -0.27125,-0.1375 -0.66625,-0.3563 -0.5425,-0.9375 -0.15375,-1.8175 0.09,-0.22 0.26125,-0.6413 0.45625,-1.1063 0,0 1.21875,0.5088 2.05625,0.82 0.82125,0.3213 2.00375,0.73 2.00375,0.73 -0.13375,0.385 -0.26875,0.7788 -0.37375,1.1375 -0.24625,0.7575 -0.58,1.4075 -1.3875,1.24 -0.0712,-0.021 -0.155,-0.046 -0.31625,-0.089 -0.20375,0.13 -0.30625,0.4938 -0.1975,0.6438 0.90625,0.3337 2.405,0.8612 3.76875,1.2387 0.12,-0.079 0.29125,-0.47 0.18,-0.645 -0.125,-0.044 -0.14875,-0.055 -0.2725,-0.1125 -0.705,-0.2912 -0.58625,-0.8625 -0.2925,-1.785 0.1775,-0.55 0.73375,-2.3112 1.01,-3.165 0.40125,-1.2887 0.6125,-1.4162 1.2925,-1.3137 0.0863,0.011 0.2075,0.034 0.35,0.069 0.13625,-0.1088 0.22875,-0.4863 0.17875,-0.6725 -1.1025,-0.3313 -2.48,-0.785 -3.58875,-1.1938 m 83.3838,-72.6074 c 0.14125,0.6325 0.48375,2.39625 0.59125,3.1425 0.215,0.16125 0.50125,0.09 0.65875,-0.0662 -0.006,-0.11375 -0.015,-0.1975 -0.0288,-0.41125 -0.0362,-0.585 0.23375,-0.8025 1.48125,-1.0875 0.8425,-0.18625 3.45375,-0.6525 4.01875,-0.76875 -0.555,0.6375 -1.3075,1.4575 -2.4575,2.79625 -1.1875,1.365 -2.43375,2.94 -3.36375,4.15375 0.0213,0.2 0.17875,0.39875 0.32125,0.45625 0.38875,-0.1175 4.7275,-0.34375 5.6825,-0.43125 1.35125,-0.1225 1.5475,-0.035 1.6575,0.56 0.0263,0.105 0.0263,0.2425 0.0425,0.35125 0.155,0.12625 0.5625,0.145 0.67625,-0.04 -0.0412,-0.83625 -0.16125,-2.155 -0.295,-3.27125 -0.1775,-0.14 -0.5125,-0.1075 -0.68,0.0575 0.009,0.15 0.03,0.2975 0.03,0.405 0.0225,0.84125 -0.35875,0.93875 -1.51625,1.0625 -0.59875,0.0612 -2.84625,0.20375 -3.465,0.24875 0.25125,-0.32 0.94625,-1.31125 2.1675,-2.70125 1.15,-1.3275 1.97375,-2.18 2.29875,-2.55125 0.31875,-0.3525 0.44875,-0.47375 0.635,-0.57 -0.0563,-0.13375 -0.0875,-0.2475 -0.105,-0.36 -0.11375,-0.6475 -0.36625,-1.98125 -0.48,-2.41625 -0.20125,-0.1025 -0.53,-0.0163 -0.64875,0.1525 0.035,0.165 0.0525,0.265 0.0687,0.39375 0.0725,0.76375 -0.59375,0.8125 -1.47125,0.97625 -0.88375,0.165 -2.18,0.40125 -3.27,0.605 -1.2025,0.23 -1.6275,0.10125 -1.795,-0.45875 -0.0362,-0.105 -0.09,-0.32 -0.1075,-0.40375 -0.215,-0.13625 -0.53125,-0.0675 -0.64625,0.17625 m -42.6125,79.53005 c 0.009,0.2487 0.009,0.5787 -0.1225,0.9062 -0.12125,0.2875 -0.35875,0.675 -1.09375,0.8988 -0.18375,0.055 -0.5725,0.1425 -1.04125,0.245 0,0 -0.90375,-3.7563 -1.11125,-4.63 -0.30375,-1.3125 -0.26125,-1.5363 0.3775,-1.7975 0.0825,-0.03 0.1975,-0.071 0.3425,-0.1138 0.05,-0.1675 -0.0563,-0.54 -0.20375,-0.6737 -1.0925,0.2962 -2.53625,0.6262 -3.72,0.87 -0.11,0.1787 -0.0287,0.5762 0.0975,0.68 0.1575,-0.015 0.3,-0.038 0.41875,-0.045 0.7175,-0.029 0.8625,0.2825 1.12625,1.4262 0.155,0.65 0.155,0.615 1.05,4.6638 -0.585,0.1275 -1.165,0.2487 -1.42125,0.29 -0.7125,0.1075 -1.0225,-0.44 -1.125,-0.6075 -0.1025,-0.165 -0.18625,-0.3775 -0.25625,-0.6113 -0.225,-0.1037 -0.61625,0.034 -0.69,0.1738 0.0775,0.3275 0.46875,1.8212 0.5525,2.2275 3.0125,-0.5688 4.84,-0.9663 7.6025,-1.7588 0.01,-0.1325 -0.055,-1.9687 -0.055,-2.1787 -0.1975,-0.1513 -0.5625,-0.1075 -0.7275,0.035 m 20.485,-9.8088 c 0.1,0.2313 0.19625,0.5525 0.17875,0.905 -0.0163,0.3163 -0.1125,0.7538 -0.7425,1.2113 -0.15375,0.1075 -0.48625,0.315 -0.89375,0.575 0,0 -2.0875,-3.2538 -2.56625,-4.0225 -0.7275,-1.1313 -0.745,-1.375 -0.24,-1.8338 0.065,-0.059 0.16375,-0.1375 0.2825,-0.2175 0,-0.1725 -0.225,-0.4825 -0.41125,-0.5587 -0.945,0.6325 -2.15375,1.4162 -3.23,2.045 -0.04,0.1912 0.165,0.5537 0.31875,0.6037 0.13875,-0.069 0.27125,-0.1275 0.38125,-0.1762 0.67,-0.2525 0.9075,-0.019 1.5425,0.9825 0.35125,0.55 0.33875,0.525 2.5125,4.0687 -0.515,0.3013 -1.02125,0.6088 -1.2475,0.7213 -0.65375,0.34 -1.11375,-0.065 -1.265,-0.1888 -0.155,-0.1325 -0.31,-0.3062 -0.44875,-0.5 -0.24375,-0.027 -0.56875,0.235 -0.59,0.39 0.175,0.275 1.04875,1.5613 1.2425,1.9225 2.67375,-1.5262 4.25375,-2.4912 6.61,-4.1462 -0.03,-0.13 -0.68875,-1.8463 -0.74875,-2.0313 -0.25,-0.094 -0.57875,0.072 -0.685,0.25 m -12.69125,4.3313 -2.29125,0.9425 2.36875,2.5875 -0.0775,-3.53 z m -1.22625,-3.0038 c 0.315,-0.1325 1.68375,-0.76 2.57875,-1.2175 0.205,0.025 0.3925,0.3838 0.32125,0.5925 -0.05,0.039 -0.18125,0.1013 -0.32125,0.2088 -0.2975,0.2487 -0.5125,0.4275 -0.48875,1.7387 0.0162,1.2463 0.0588,6.0063 0.0675,6.4413 -0.1275,0.1612 -0.7375,0.7175 -0.7925,0.7712 -0.0487,0.041 -0.0988,0.072 -0.19625,-0.025 -0.0975,-0.1062 -4.1475,-4.5387 -4.52375,-4.94 -0.2625,-0.28 -0.90375,-1.0637 -1.54,-0.8862 -0.1675,0.046 -0.2275,0.069 -0.4325,0.115 -0.1225,-0.08 -0.31875,-0.42 -0.1825,-0.66 1.54,-0.5175 2.7425,-0.9875 3.23875,-1.1838 0.17125,0.058 0.3425,0.4038 0.25125,0.6138 -0.08,0.029 -0.11125,0.04 -0.2675,0.1162 -0.595,0.275 -0.24,0.6325 0.15625,1.0675 0.415,0.455 0.40625,0.46 0.61125,0.6775 0.34625,-0.1487 2.34125,-0.9787 2.72625,-1.1275 0,-0.1937 -0.0125,-0.3537 -0.03,-0.8562 -0.008,-0.86 -0.08,-1.0838 -0.6675,-0.9113 -0.19375,0.051 -0.175,0.051 -0.28625,0.08 -0.1125,-0.049 -0.365,-0.3387 -0.2225,-0.615 m 35.3475,-22.5475 c -0.2,0.43 -0.4275,0.85 -0.64625,1.16375 -0.185,0.265 -0.55375,0.6775 -1.00875,0.77875 -0.44875,0.1125 -0.9375,-0.0675 -1.19875,-0.21625 -0.2525,-0.165 -0.5425,-0.325 -0.8075,-0.8175 -0.25875,-0.5025 -0.055,-1.08 0.16,-1.47 l -0.20365,-0.3525 c -0.67375,0.11375 -4.0625,0.54125 -4.6575,0.625 -0.535,0.81875 -1.175,1.7325 -1.285,1.8875 0.0625,0.1825 0.355,0.37875 0.55875,0.415 0.1075,-0.15 0.2,-0.2525 0.24875,-0.3 0.39875,-0.44 0.61875,-0.54375 1.52125,-0.70625 0.9525,-0.1775 1.89,-0.30125 2.72125,-0.36625 -0.22375,0.92 -0.19625,1.88 0.835,2.56125 1.505,0.98125 2.6125,0.0275 3.2,-0.78375 0.20875,-0.275 0.43625,-0.6925 0.62,-1.01 0.19375,-0.31375 0.83,-1.4325 1.93,-3.4325 -0.0462,-0.15125 -0.4275,-0.39 -0.60875,-0.3075 -0.0788,0.1025 -0.11125,0.1575 -0.18875,0.2875 -0.5225,0.815 -0.62,0.55625 -1.7925,-0.0775 -0.53,-0.28625 -2.1125,-1.16875 -2.9025,-1.5975 -1.18875,-0.64125 -1.31625,-0.86 -1.08375,-1.50375 0.0238,-0.0838 0.0825,-0.20125 0.13875,-0.33 -0.0725,-0.14875 -0.4125,-0.3175 -0.6125,-0.2925 -0.505,0.9725 -1.19875,2.19125 -1.84125,3.27125 0.065,0.19 0.415,0.375 0.58,0.34 0.0963,-0.12125 0.17,-0.2225 0.25125,-0.32125 0.46125,-0.545 0.77625,-0.50125 1.8175,0.1075 0.55375,0.32875 2.88375,1.67 4.255,2.4475 m 2.3675,-22.915 c 2.6575,-0.40125 2.94625,-0.5525 5.05375,-0.8375 0.75375,-0.10125 1.06,-0.13875 1.03625,0.49125 -0.0125,0.16 -0.0212,0.26 -0.0387,0.3425 0.14875,0.1775 0.5225,0.21625 0.65375,0.09 0.2125,-1.2675 0.4025,-2.435 0.5625,-3.80625 -0.16,-0.2325 -0.57,-0.22125 -0.66875,-0.095 -0.025,0.12875 -0.0488,0.265 -0.0975,0.435 -0.195,0.62 -0.46,0.755 -1.405,0.9325 -0.53875,0.0987 -6.4,1.08625 -6.535,1.11625 -0.14625,0.0288 -0.17,0.16375 -0.1625,0.24125 0.009,0.0625 0.13875,0.87625 0.21125,1.2425 1.76875,1.0725 4.32,2.81625 5.33125,3.51 1.01875,0.67625 1.125,0.99875 1.04375,1.3375 -0.0387,0.1775 -0.0737,0.29 -0.10625,0.4225 0.1225,0.1875 0.49625,0.31375 0.63625,0.175 0.2475,-0.925 0.55375,-2.22625 0.725,-3.095 -0.0962,-0.22 -0.4775,-0.29875 -0.63625,-0.175 -0.0238,0.10875 -0.06,0.2375 -0.0888,0.33375 -0.14625,0.4075 -0.29375,0.65 -1.1525,0.12625 -1.3575,-0.8175 -2.99375,-1.90125 -4.3625,-2.7875 m -2.16,-32.63 c 2.115,-1.6425 2.30375,-1.9175 3.99,-3.19625 0.6125,-0.45625 0.865,-0.645 1.13375,-0.0788 0.0813,0.1475 0.11375,0.24125 0.14625,0.30875 0.22125,0.0862 0.57,-0.0588 0.6275,-0.24125 -0.44625,-1.21 -0.85125,-2.31875 -1.385,-3.58625 -0.25375,-0.12625 -0.5875,0.0763 -0.625,0.24625 0.0375,0.11625 0.09,0.24625 0.11875,0.42625 0.13125,0.64 -0.0288,0.88 -0.76625,1.49625 -0.4225,0.35625 -5.035,4.08375 -5.15125,4.1775 -0.10125,0.0888 -0.065,0.22375 -0.0212,0.2775 0.0437,0.0675 0.5475,0.7075 0.79125,0.9875 2.065,0.0712 5.1475,0.34 6.37125,0.44375 1.2225,0.0987 1.4575,0.32375 1.56875,0.66125 0.0538,0.17125 0.0825,0.29125 0.10875,0.41125 0.19875,0.1125 0.5875,0.05 0.63625,-0.14875 -0.2125,-0.895 -0.5975,-2.20875 -0.87,-3.05625 -0.1975,-0.1375 -0.58,-0.025 -0.6525,0.1625 0.04,0.11625 0.0625,0.235 0.09,0.3325 0.0712,0.43375 0.0637,0.70125 -0.94625,0.675 -1.57375,-0.0475 -3.53,-0.18625 -5.165,-0.29875 m -122.0125,2.83 c 0,0 0.78375,-0.65 1.2875,-2.2925 0.49625,-1.62875 -0.155,-3.125 -1.49875,-3.53125 -1.52125,-0.4525 -2.38,0.59125 -3.1625,1.4775 -0.85625,0.96625 -1.29,1.41375 -1.925,1.25625 -0.4275,-0.1025 -1.21875,-0.5875 -0.76625,-1.84 0.49,-1.37375 1.72875,-1.10125 1.9,-1.10125 0.2275,-0.22 0.27125,-0.47 0.14,-0.69875 -0.45125,-0.15375 -1.64375,-0.37 -1.8725,-0.3375 -0.19125,0.36375 -0.56625,0.96125 -0.95,2.175 -0.80625,2.54375 0.91375,3.3475 1.8475,3.42625 0.7375,0.0675 1.4175,-0.16125 2.6275,-1.57875 0.84375,-0.98375 1.46,-1.4375 2.2275,-1.1175 0.52875,0.2225 0.94375,0.76125 0.6675,1.7425 -0.45,1.52875 -1.6625,1.36375 -2.43625,1.385 -0.17125,0.20625 -0.2175,0.58875 -0.14125,0.7675 0.50375,0.14 1.1325,0.29125 2.055,0.2675 m -2.4538,18.07125 c 0,0 0.57,-0.8325 0.63625,-2.535 0.0575,-1.72125 -0.96375,-2.9925 -2.3725,-3.025 -1.58,-0.0425 -2.14,1.18375 -2.66625,2.2525 -0.57875,1.15125 -0.87375,1.69125 -1.5225,1.7075 -0.44125,0.0163 -1.33375,-0.2375 -1.23125,-1.57 0.1175,-1.4525 1.38625,-1.51625 1.5575,-1.56375 0.15375,-0.27 0.1325,-0.5175 -0.05,-0.715 -0.47375,-0.0275 -1.69125,0.0763 -1.89875,0.165 -0.09,0.39875 -0.295,1.07125 -0.35,2.3525 -0.115,2.665 1.75125,2.99375 2.68125,2.82375 0.72375,-0.12125 1.3275,-0.5225 2.12,-2.21 0.56125,-1.17625 1.02625,-1.77375 1.8575,-1.66625 0.57,0.0825 1.11625,0.49 1.0925,1.51125 -0.025,1.59375 -1.2425,1.7575 -1.98125,1.97875 -0.11375,0.24 -0.0525,0.6125 0.065,0.78125 0.52125,0 1.17375,-0.0213 2.0625,-0.2875 m 61.5425,62.9088 c 0,0 -0.815,-0.6038 -2.52375,-0.7238 -1.71,-0.1075 -3.01,0.8625 -3.0925,2.2663 -0.0925,1.5812 1.1225,2.185 2.16375,2.7512 1.13875,0.6075 1.66875,0.9275 1.65875,1.5738 0,0.4437 -0.2925,1.32 -1.605,1.17 -1.45125,-0.1638 -1.48,-1.4288 -1.515,-1.6025 -0.27125,-0.165 -0.51875,-0.1463 -0.72,0.031 -0.04,0.4675 0.0175,1.6912 0.1,1.905 0.4025,0.098 1.07,0.3275 2.33875,0.42 2.66125,0.2012 3.0525,-1.6588 2.9175,-2.5838 -0.1,-0.7287 -0.48125,-1.3387 -2.1375,-2.2 -1.15875,-0.5962 -1.73875,-1.0887 -1.605,-1.905 0.1,-0.5712 0.52375,-1.0962 1.5425,-1.0475 1.59375,0.084 1.71125,1.3063 1.91,2.0538 0.2425,0.115 0.62125,0.075 0.78,-0.04 0.0162,-0.5263 0.0238,-1.1675 -0.2125,-2.0688 m 51.18875,-23.6775 c 0,0 -0.98125,0.2625 -2.1275,1.5425 -1.13875,1.285 -1.18125,2.9125 -0.12,3.83875 1.185,1.04375 2.40375,0.46125 3.49,-0.009 1.18,-0.51875 1.76375,-0.7425 2.27125,-0.33875 0.34625,0.27125 0.86,1.045 -0.0762,1.9875 -1.0225,1.0438 -2.025,0.2813 -2.18875,0.2113 -0.29375,0.098 -0.435,0.3037 -0.41625,0.5662 0.34375,0.3363 1.33875,1.0313 1.56125,1.1 0.32625,-0.2462 0.9125,-0.6262 1.7725,-1.5787 1.79375,-1.9688 0.57,-3.42005 -0.24,-3.8838 -0.6325,-0.38125 -1.34375,-0.45125 -3.045,0.32625 -1.18125,0.55125 -1.9275,0.705 -2.49375,0.0863 -0.39125,-0.425 -0.5375,-1.0875 0.13125,-1.855 1.0425,-1.20875 2.07375,-0.5525 2.78625,-0.23625 0.23625,-0.1225 0.44125,-0.45625 0.4575,-0.65125 -0.40875,-0.32625 -0.9125,-0.7325 -1.7625,-1.10625 m 13.6425,-39.7925 c 0.0112,1.10375 -0.015,2.36625 -0.11,3.885 0.1475,0.145 0.5775,0.16125 0.71,0.0437 0.007,-0.18 0.02,-0.31125 0.0525,-0.43125 0.15,-0.7 0.485,-0.76625 1.67125,-0.73 0.68125,0.03 2.06625,0.0863 3.28,0.12875 0.855,0.0288 1.53375,0.0975 1.58875,0.945 0.01,0.07 0,0.18 0.0175,0.35375 0.11875,0.1525 0.5625,0.18625 0.68875,0.035 0.065,-1.06375 0.105,-2.59 0.11125,-4.06375 -0.115,-0.1225 -0.54,-0.1225 -0.68125,0.0263 -0.0137,0.12375 -0.0137,0.22875 -0.02,0.38 -0.0825,0.8725 -0.93875,0.755 -1.63125,0.74625 -0.6775,-0.003 -2.3475,-0.03 -3.27625,-0.0388 -1.4275,-0.0187 -1.54125,-0.17625 -1.655,-0.885 -0.02,-0.11 -0.0325,-0.26875 -0.04,-0.41125 -0.1475,-0.0975 -0.5475,-0.0937 -0.70625,0.0163 M 36.2897,944.49225 c 0.1475,-1.105 0.355,-2.34125 0.6775,-3.83125 -0.12625,-0.15875 -0.555,-0.24 -0.68875,-0.1525 -0.0462,0.1775 -0.0737,0.3075 -0.12125,0.42 -0.25625,0.67625 -0.59875,0.69875 -1.75875,0.48125 -0.675,-0.1325 -2.03875,-0.38375 -3.23625,-0.60375 -0.83,-0.16375 -1.5,-0.325 -1.4325,-1.17125 0.006,-0.0762 0.0238,-0.18375 0.0475,-0.3525 -0.0975,-0.17375 -0.53,-0.27 -0.6775,-0.13875 -0.2275,1.05375 -0.49625,2.54875 -0.71625,4.00375 0.105,0.145 0.5225,0.20625 0.6775,0.0762 0.0325,-0.1325 0.0488,-0.23 0.0813,-0.37375 0.21875,-0.84875 1.035,-0.615 1.72,-0.5025 0.6675,0.0975 2.3225,0.375 3.24375,0.52125 1.4025,0.22625 1.49125,0.4075 1.5075,1.1125 0,0.12125 -0.007,0.28625 -0.025,0.42 0.13125,0.1175 0.52,0.165 0.70125,0.0913 M 43.781,984.6435 c -0.55375,-0.965 -1.1575,-2.05875 -1.8175,-3.435 -0.195,-0.06 -0.57875,0.1425 -0.64,0.3 0.0725,0.17 0.13625,0.29125 0.16875,0.405 0.20125,0.69125 -0.05,0.91875 -1.09625,1.45875 -0.60875,0.315 -1.8475,0.945 -2.925,1.50625 -0.7525,0.3975 -1.38,0.66875 -1.84875,-0.0425 -0.045,-0.0662 -0.0975,-0.15125 -0.18,-0.30125 -0.1875,-0.0763 -0.58625,0.10875 -0.62375,0.30625 0.46875,0.9675 1.17875,2.31125 1.9,3.59375 0.16,0.0538 0.53625,-0.1575 0.575,-0.3575 -0.0488,-0.1175 -0.0988,-0.19875 -0.16375,-0.34 -0.35,-0.8 0.44625,-1.11 1.0525,-1.45125 0.59,-0.3325 2.065,-1.13625 2.875,-1.57875 1.25125,-0.685 1.42875,-0.5925 1.87625,-0.0412 0.0737,0.0863 0.1625,0.2125 0.235,0.345 0.18,0.0125 0.52375,-0.19 0.6125,-0.3675 m 61.63625,31.68505 c -1.1025,0.1262 -2.35125,0.2312 -3.87625,0.2925 -0.13,0.1637 -0.0975,0.6012 0.0237,0.7162 0.1875,0 0.31625,0 0.44125,0.014 0.715,0.074 0.81625,0.4013 0.89625,1.575 0.0412,0.6875 0.14375,2.0725 0.22375,3.28 0.0625,0.8488 0.0662,1.5363 -0.76125,1.6825 -0.0825,0.011 -0.19125,0.023 -0.35875,0.053 -0.1475,0.1388 -0.12875,0.5688 0.0413,0.68 1.06875,-0.041 2.58,-0.15 4.0475,-0.3062 0.1175,-0.1338 0.0687,-0.5563 -0.0937,-0.6813 -0.135,0 -0.22875,0.018 -0.3825,0.018 -0.8725,0.014 -0.85375,-0.8487 -0.92125,-1.5362 -0.07,-0.6775 -0.21125,-2.3525 -0.30375,-3.2663 -0.12125,-1.4175 0.0162,-1.5512 0.70125,-1.7375 0.11125,-0.037 0.27,-0.067 0.4175,-0.092 0.0787,-0.1487 0.0262,-0.5387 -0.095,-0.69 m 35.86125,-16.205 c 0.19375,0.05 0.4575,0.3425 0.49125,0.5113 -0.0988,0.1037 -0.20375,0.2187 -0.2875,0.3062 -0.43875,0.5663 -0.4825,0.7575 0.465,1.8163 0.62,0.6975 1.7225,1.9575 2.17375,2.4575 0.4675,0.5125 0.94875,1.2187 1.65,0.7075 0.12625,-0.098 0.19375,-0.1625 0.2925,-0.2438 0.21125,-0.01 0.4975,0.3175 0.48125,0.4875 -1.08625,0.9875 -2.2425,1.9725 -3.08625,2.6513 -0.2,0 -0.46,-0.3388 -0.43375,-0.5375 0.12875,-0.1213 0.21,-0.1925 0.26,-0.245 0.58,-0.6125 0.17375,-1.1675 -0.375,-1.8163 -0.78375,-0.9262 -1.68,-1.9812 -2.12375,-2.5062 -0.755,-0.9075 -1.035,-1.0988 -1.655,-0.7563 -0.11,0.067 -0.215,0.1488 -0.36625,0.2588 -0.1625,-0.022 -0.445,-0.35 -0.4325,-0.5563 1.195,-0.95 2.1325,-1.7837 2.94625,-2.535" />
    <path
       id="path4183"
       style="fill:#ffffff;fill-opacity:1;fill-rule:nonzero;stroke:none"
       d="m 127.19875,949.01595 c -0.59125,0.68125 -1.275,1.355 -2.035,1.99 9.88,9.58875 14.6075,19.30375 11.29375,24.03125 -3.41125,4.8725 -14.5875,3.57625 -27.30125,-3.02 0.21375,1.32875 0.5025,2.7125 0.855,4.10125 17.05125,9.4225 31.9925,11.96625 36.1675,6.0075 4.2825,-6.11875 -3.66375,-19.80875 -18.98,-33.11 z M 71.3575,918.38845 c 0.12125,2.5475 1.75125,4.88875 4.3,5.79625 2.7275,0.9675 5.66875,-0.003 7.33,-2.19375 4.6575,1.95625 9.6525,4.58375 14.7075,7.8025 0.155,-1.03875 0.3625,-2.08125 0.62,-3.11125 -4.75375,-3.11 -9.465,-5.85125 -14,-8.1725 0.43625,-2.99125 -1.28,-5.975 -4.24125,-7.025 -2.61375,-0.93 -5.4225,-0.0712 -7.1125,1.93125 -12.6,-4.78625 -22.45625,-5.3775 -25.7875,-0.61625 -5.46125,7.8 8.53375,27.11625 31.56,44.07625 -0.48,-1.5925 -0.93625,-3.34875 -1.2675,-5.07875 -14.53625,-11.995 -22.6075,-24.9875 -18.4825,-30.87875 1.98,-2.8275 6.45875,-3.57375 12.37375,-2.53 z M 102.74,964.9397 c 0.44125,5.8025 1.75375,13.81125 3.34625,19.6375 l -1.81375,2.87125 c -2.7875,-10.615 -3.4975,-17.01875 -3.62375,-19.48625 -1.08,2.34 -2.84,5.6325 -5.04875,10.97625 1.77625,5.79375 4.97375,14.7025 7.88125,20.73375 l -1.27125,2.8925 c -3.21125,-6.70625 -5.33875,-12.455 -6.86,-16.7225 -0.58625,-1.65 -0.95375,-3.0725 -1.2575,-4.035 -0.8975,2.8575 -3.65375,10.07625 -5.82125,21.6463 l -2.67375,1.3287 c 1.5375,-8.9225 4.21375,-18.2475 7.23,-26.08125 -1.29625,-4.66625 -2.39875,-9.58875 -3.01625,-13.10875 -2.63125,-0.9475 -4.4375,-3.225 -5.72625,-8.075 1.215,1.20875 2.22375,1.93375 4.04,3.0825 l 0.1875,-1.62875 c -3.615,-2.795 -4.86,-5.21 -5.485,-8.95625 1.14,1.33875 2.16375,2.315 4.05,3.48125 l 0.2575,-1.7175 c -2.83375,-2.66125 -4.52875,-4.61375 -4.82125,-8.33375 0.9575,1.1375 2.1875,2.26125 4.1725,3.54625 l 0.3675,-1.69125 c -2.6575,-2.875 -3.92125,-4.81875 -3.65125,-7.60125 1.3525,1.80125 2.13375,2.215 3.40125,3.265 l 0.465,-1.545 c -2.26875,-2.63 -2.8325,-3.98375 -2.53875,-6.095 1.39,1.62875 1.8425,2.06 3.175,3.15125 0,0 0.3375,-4.02125 1.43,-6.41 0.88375,2.02125 1.07625,5.3925 0.97,8.00625 1.28125,-1.2075 2.575,-3.26 3.2375,-4.4925 0.17,4.015 -0.5475,5.24125 -2.81625,8.65 l 0.45125,1.19625 c 1.3675,-0.98125 2.25875,-1.70625 3.485,-3.7825 0.1675,4.24 -0.63625,5.4475 -3.31375,9.42125 l 0.5,1.49 c 1.7325,-1.60375 2.875,-2.7975 3.66625,-4.5525 0.565,3.985 -1.01625,6.4725 -3.5425,10.3275 l 0.46,1.45125 c 1.4525,-1.3025 2.25,-1.815 3.13875,-3.59125 0.7,4.16625 -0.92875,8.23625 -3.38625,10.12 0.415,2.5225 0.94875,4.9225 1.58875,7.68125 0.42,1.7875 0.71125,3.165 0.835,3.7425 0.8275,-1.95 2.405,-5.6775 5.665,-11.57125 -0.27625,-11.1525 1.44875,-21.97875 5.20875,-32.9125 -2.19375,-1.685 -3.59375,-6.25125 -1.36,-10.59125 0.375,2.435 1.2625,4.35625 1.76125,5.5 l 0.9625,-1.04625 c -0.85,-5.20375 -0.78375,-7.4375 0.64125,-10.85375 0.22125,1.685 0.86625,3.92875 1.5,5.675 l 1.13875,-1.1575 c -0.62625,-4.96125 -0.935,-7.47 0.7775,-10.95 0.15375,1.79375 0.88875,3.94875 1.5575,5.81875 l 1.29625,-1.0375 c -0.46125,-4.07 -0.62125,-7.41875 1.01875,-10.27 0.1375,1.62375 0.5,3.43625 1.29625,5.87125 l 1.2875,-0.935 c -0.16375,-4.1675 0.2675,-6.97125 1.74375,-8.53875 -0.0288,2.23625 0.27,3.1125 0.64375,4.95125 l 1.28,-0.88375 c 0.0613,-3.54625 0.115,-4.7375 1.58875,-6.1525 0.14,2.0775 0.24125,2.685 0.64,4.32125 0,0 2.63625,-2.83625 4.90375,-3.97 -0.4975,2.065 -2.33125,4.72625 -3.9525,6.63625 1.7125,-0.13 3.94,-0.8925 5.1825,-1.41625 -2.2325,3.1325 -3.5125,3.625 -7.30625,4.81375 l -0.35,1.17875 c 1.65,0.0913 3.215,-0.0375 5.40875,-0.8525 -2.3725,3.3025 -4.1175,3.75625 -8.56375,5.125 l -0.48625,1.42875 c 2.5975,-0.25875 4.6425,-0.64875 6.3025,-1.4875 -1.9025,3.355 -4.73625,4.5725 -9.0325,5.8575 l -0.5375,1.48 c 2.55875,-0.37125 4.6125,-0.9125 6.22625,-1.81875 -1.76125,3.435 -4.95375,5.23875 -9.22,6.52375 l -0.49625,1.545 c 3.3025,-0.51375 4.0275,-0.65 6.57,-1.75375 -2.42125,4.37875 -7.05875,6.62 -9.9025,6.8975 -3.2375,9.05375 -4.47875,16.66 -5.0375,22.5425 -0.27875,2.95875 -0.35125,5.21375 -0.4325,7.3975 0.395,-0.75875 0.8075,-1.51375 1.43375,-2.53 1.63125,-2.6275 2.90375,-4.60875 5.40625,-8.22 -1.25875,-2.37375 -1.2725,-6.55375 1.46625,-9.95 -0.105,2.46375 0.13875,4.35375 0.47625,5.7575 l 1.10625,-0.91625 c 0.095,-4.9675 0.65125,-7.2625 2.77,-10.505 -0.0887,1.69625 -0.04,3.54 0.24,5.9175 l 1.32625,-0.935 c 0.29375,-5.21875 0.98125,-7.81375 3.20125,-10.69625 -0.1775,1.9625 -0.0975,4.2 0.0337,6.2825 l 1.43125,-0.8975 c 0.2675,-4.09125 0.74125,-7.50875 3.0275,-9.93125 -0.4075,2.67875 -0.2575,3.26875 0,6.17875 l 1.44125,-0.76125 c 0.425,-4.1875 1.53875,-6.9325 3.27125,-8.21 -0.4325,2.19375 -0.29375,3.11 -0.25,4.9875 l 1.415,-0.6425 c 0.6925,-3.47625 0.96125,-4.6425 2.66,-5.77125 -0.235,2.07 -0.2425,2.68375 -0.14125,4.365 0,0 3.0975,-2.32 5.535,-3.0325 -0.86125,1.94625 -3.13875,4.2375 -5.08,5.82875 1.71625,0.175 4.045,-0.175 5.365,-0.4725 -2.76,2.685 -4.1075,2.9425 -8.0525,3.43375 l -0.55625,1.1 c 1.6075,0.3825 3.17125,0.535 5.46875,0.12375 -2.91375,2.82875 -4.6525,2.87375 -9.27125,3.43 l -0.7287,1.31875 c 2.6,0.2075 4.21875,0.36125 6,-0.17125 -2.6575,3.2825 -4.99875,3.44 -9.49625,4.02 l -0.76875,1.31875 c 2.59,0.0937 4.27125,-0.0362 6.0175,-0.6375 -2.29875,3.28875 -4.98,4.075 -9.6525,4.77 l -0.79375,1.38625 c 2.125,0.2975 3.79375,0.21125 6.08625,-0.38375 -4.2475,4.81375 -8.9275,5.07625 -11.4775,4.8775 -3.065,4.28125 -5.9825,8.88 -8.5025,13.41" />
  </g>
</svg>
